<mxfile host="65bd71144e">
    <diagram name="Page-1" id="UEqEyAsB8S766lTFCi-Z">
        <mxGraphModel dx="906" dy="627" grid="1" gridSize="10" guides="1" tooltips="1" connect="1" arrows="1" fold="1" page="1" pageScale="1" pageWidth="1654" pageHeight="2336" math="0" shadow="0">
            <root>
                <mxCell id="0"/>
                <mxCell id="1" parent="0"/>
                <mxCell id="fNMqg_ss_aidQW02KWIx-110" style="edgeStyle=orthogonalEdgeStyle;rounded=0;jumpStyle=arc;orthogonalLoop=1;jettySize=auto;html=1;exitX=1;exitY=0.5;exitDx=0;exitDy=0;entryX=0;entryY=0.75;entryDx=0;entryDy=0;strokeWidth=2;endArrow=none;endFill=0;" parent="1" source="fNMqg_ss_aidQW02KWIx-108" target="fNMqg_ss_aidQW02KWIx-109" edge="1">
                    <mxGeometry relative="1" as="geometry">
                        <Array as="points">
                            <mxPoint x="1010" y="809"/>
                            <mxPoint x="1010" y="792"/>
                        </Array>
                    </mxGeometry>
                </mxCell>
                <mxCell id="fNMqg_ss_aidQW02KWIx-108" value="" style="ellipse;whiteSpace=wrap;html=1;strokeWidth=2;" parent="1" vertex="1">
                    <mxGeometry x="871.3199999999999" y="794" width="52.5" height="30" as="geometry"/>
                </mxCell>
                <mxCell id="fNMqg_ss_aidQW02KWIx-107" value="" style="ellipse;whiteSpace=wrap;html=1;strokeWidth=2;" parent="1" vertex="1">
                    <mxGeometry x="865.18" y="787" width="52.5" height="30" as="geometry"/>
                </mxCell>
                <mxCell id="Q9T9pun5c3dHjWWsXrWX-3" value="OnStep MaxPCB3 board" style="rounded=0;whiteSpace=wrap;html=1;verticalAlign=top;strokeWidth=3;" parent="1" vertex="1">
                    <mxGeometry x="210" y="229" width="670" height="421" as="geometry"/>
                </mxCell>
                <mxCell id="_HGjW_DX3VZrAmac7toe-38" value="&lt;font style=&quot;font-size: 18px;&quot;&gt;&lt;b&gt;TELESCOPE SERVO CONTROLLER&lt;br&gt;MaxPCB3 INTERCONNECT&lt;br&gt;&lt;/b&gt;&lt;/font&gt;" style="text;html=1;strokeColor=none;fillColor=none;align=center;verticalAlign=middle;whiteSpace=wrap;rounded=0;fontSize=11;fontFamily=Helvetica;fontColor=default;" parent="1" vertex="1">
                    <mxGeometry x="482.62" y="30" width="330" height="30" as="geometry"/>
                </mxCell>
                <mxCell id="_HGjW_DX3VZrAmac7toe-56" value="&lt;font style=&quot;font-size: 11px;&quot;&gt;12VDC&lt;/font&gt;" style="ellipse;whiteSpace=wrap;html=1;aspect=fixed;fontFamily=Helvetica;fontSize=18;fontColor=default;" parent="1" vertex="1">
                    <mxGeometry x="40" y="286.61" width="60" height="60" as="geometry"/>
                </mxCell>
                <mxCell id="DmmtlnbeRdiQzRtUIVF0-5" value="DB-15" style="rounded=1;whiteSpace=wrap;html=1;strokeWidth=2;rotation=90;" parent="1" vertex="1">
                    <mxGeometry x="800" y="331.92" width="183.39" height="20" as="geometry"/>
                </mxCell>
                <mxCell id="DmmtlnbeRdiQzRtUIVF0-23" value="&lt;b&gt;NOTES:&lt;/b&gt;&lt;br&gt;10 wraps on ammeter sense loop increases resolution to 0.1A&lt;br&gt;LevelStick modules must have 5V regulator populated&lt;br&gt;Build changes to MaxPCB4:&lt;br&gt;* Omit RJ12 jack, solder ST4 wires to board&lt;br&gt;* Connect paddle analog rate ctl to Teensy A8 (solder to pad 8 of DB15)&lt;br&gt;* Use terminal blocks in place of stepper/servo RJ-45s&lt;br&gt;* Use levelStick drivers for RA and dec servos&lt;br&gt;* Remove 2.5mm power connector, solder power wires to board&lt;br&gt;* Remove 3mm TRS connector, hardwire AUX7/8 if desired&lt;br&gt;* Omit 12VDC regulator, jumper input to output pads" style="text;html=1;strokeColor=default;fillColor=none;align=left;verticalAlign=middle;whiteSpace=wrap;rounded=0;perimeterSpacing=1;" parent="1" vertex="1">
                    <mxGeometry x="35" y="20" width="420" height="180" as="geometry"/>
                </mxCell>
                <mxCell id="DmmtlnbeRdiQzRtUIVF0-28" value="" style="endArrow=none;html=1;rounded=0;labelBackgroundColor=default;strokeColor=default;strokeWidth=2;fontFamily=Helvetica;fontSize=11;fontColor=default;shape=connector;jumpStyle=arc;edgeStyle=orthogonalEdgeStyle;entryX=0.25;entryY=0;entryDx=0;entryDy=0;exitX=1;exitY=0.5;exitDx=0;exitDy=0;" parent="1" source="_HGjW_DX3VZrAmac7toe-56" target="fNMqg_ss_aidQW02KWIx-8" edge="1">
                    <mxGeometry width="50" height="50" relative="1" as="geometry">
                        <mxPoint x="485" y="657" as="sourcePoint"/>
                        <mxPoint x="550" y="657" as="targetPoint"/>
                    </mxGeometry>
                </mxCell>
                <mxCell id="DmmtlnbeRdiQzRtUIVF0-29" value="&lt;font style=&quot;font-size: 11px;&quot;&gt;DCGND&lt;/font&gt;" style="ellipse;whiteSpace=wrap;html=1;aspect=fixed;fontFamily=Helvetica;fontSize=18;fontColor=default;" parent="1" vertex="1">
                    <mxGeometry x="40" y="218" width="60" height="60" as="geometry"/>
                </mxCell>
                <mxCell id="DmmtlnbeRdiQzRtUIVF0-33" value="ST4 Hand Paddle&lt;br&gt;4 buttons + rate pot&lt;br&gt;in Bud Box&lt;br&gt;AN-1302-AB&amp;nbsp;" style="rounded=0;whiteSpace=wrap;html=1;strokeWidth=2;rotation=0;fillColor=#b0e3e6;strokeColor=#0e8088;" parent="1" vertex="1">
                    <mxGeometry x="222" y="1183" width="140" height="70" as="geometry"/>
                </mxCell>
                <mxCell id="9" style="edgeStyle=orthogonalEdgeStyle;html=1;exitX=0.5;exitY=1;exitDx=0;exitDy=0;entryX=0.5;entryY=0;entryDx=0;entryDy=0;strokeWidth=4;endArrow=none;endFill=0;" edge="1" parent="1" source="fNMqg_ss_aidQW02KWIx-2" target="fNMqg_ss_aidQW02KWIx-5">
                    <mxGeometry relative="1" as="geometry"/>
                </mxCell>
                <mxCell id="fNMqg_ss_aidQW02KWIx-2" value="8-pin circ. fem conn&lt;br&gt;panel rear mount&lt;br&gt;Amphenol" style="rounded=0;whiteSpace=wrap;html=1;strokeWidth=2;rotation=0;" parent="1" vertex="1">
                    <mxGeometry x="212" y="808" width="160" height="50" as="geometry"/>
                </mxCell>
                <mxCell id="fNMqg_ss_aidQW02KWIx-5" value="8-pin circ. male conn&lt;br&gt;cable mount&lt;br&gt;Amphenol" style="rounded=0;whiteSpace=wrap;html=1;strokeWidth=2;rotation=0;fillColor=#b0e3e6;strokeColor=#0e8088;" parent="1" vertex="1">
                    <mxGeometry x="222" y="920" width="140" height="50" as="geometry"/>
                </mxCell>
                <mxCell id="fNMqg_ss_aidQW02KWIx-8" value="VCC&amp;nbsp; GND&lt;br&gt;PWR" style="rounded=1;whiteSpace=wrap;html=1;strokeWidth=2;rotation=-90;" parent="1" vertex="1">
                    <mxGeometry x="160" y="249.22" width="68.76" height="30.78" as="geometry"/>
                </mxCell>
                <mxCell id="fNMqg_ss_aidQW02KWIx-118" style="edgeStyle=orthogonalEdgeStyle;rounded=0;jumpStyle=arc;orthogonalLoop=1;jettySize=auto;html=1;exitX=0.5;exitY=1;exitDx=0;exitDy=0;entryX=0.5;entryY=0;entryDx=0;entryDy=0;strokeWidth=2;endArrow=none;endFill=0;" parent="1" source="fNMqg_ss_aidQW02KWIx-9" target="fNMqg_ss_aidQW02KWIx-117" edge="1">
                    <mxGeometry relative="1" as="geometry"/>
                </mxCell>
                <mxCell id="fNMqg_ss_aidQW02KWIx-9" value="WiFi Module&lt;br style=&quot;border-color: var(--border-color);&quot;&gt;WeMOS Mini Pro D1" style="rounded=0;whiteSpace=wrap;html=1;strokeWidth=2;rotation=0;" parent="1" vertex="1">
                    <mxGeometry x="450" y="546" width="130" height="90" as="geometry"/>
                </mxCell>
                <mxCell id="fNMqg_ss_aidQW02KWIx-10" value="GPS Module&lt;br&gt;AdaFruit Ultimate GPS&lt;br&gt;with CR1220 batt&lt;br&gt;holder&lt;br&gt;&lt;br&gt;On standoffs under panel" style="rounded=0;whiteSpace=wrap;html=1;strokeWidth=2;rotation=0;" parent="1" vertex="1">
                    <mxGeometry x="1060.7" y="260" width="130" height="141" as="geometry"/>
                </mxCell>
                <mxCell id="fNMqg_ss_aidQW02KWIx-13" value="1" style="rounded=0;whiteSpace=wrap;html=1;strokeWidth=2;rotation=0;" parent="1" vertex="1">
                    <mxGeometry x="901.7" y="250" width="20" height="12" as="geometry"/>
                </mxCell>
                <mxCell id="fNMqg_ss_aidQW02KWIx-14" value="2" style="rounded=0;whiteSpace=wrap;html=1;strokeWidth=2;rotation=0;" parent="1" vertex="1">
                    <mxGeometry x="901.7" y="262" width="20" height="12" as="geometry"/>
                </mxCell>
                <mxCell id="fNMqg_ss_aidQW02KWIx-15" value="3" style="rounded=0;whiteSpace=wrap;html=1;strokeWidth=2;rotation=0;" parent="1" vertex="1">
                    <mxGeometry x="901.7" y="274" width="20" height="12" as="geometry"/>
                </mxCell>
                <mxCell id="fNMqg_ss_aidQW02KWIx-16" value="4" style="rounded=0;whiteSpace=wrap;html=1;strokeWidth=2;rotation=0;" parent="1" vertex="1">
                    <mxGeometry x="901.7" y="286" width="20" height="12" as="geometry"/>
                </mxCell>
                <mxCell id="fNMqg_ss_aidQW02KWIx-17" value="5" style="rounded=0;whiteSpace=wrap;html=1;strokeWidth=2;rotation=0;" parent="1" vertex="1">
                    <mxGeometry x="901.7" y="298" width="20" height="12" as="geometry"/>
                </mxCell>
                <mxCell id="fNMqg_ss_aidQW02KWIx-18" value="6" style="rounded=0;whiteSpace=wrap;html=1;strokeWidth=2;rotation=0;" parent="1" vertex="1">
                    <mxGeometry x="901.7" y="310" width="20" height="12" as="geometry"/>
                </mxCell>
                <mxCell id="fNMqg_ss_aidQW02KWIx-19" value="7" style="rounded=0;whiteSpace=wrap;html=1;strokeWidth=2;rotation=0;" parent="1" vertex="1">
                    <mxGeometry x="901.7" y="322" width="20" height="12" as="geometry"/>
                </mxCell>
                <mxCell id="fNMqg_ss_aidQW02KWIx-20" value="8" style="rounded=0;whiteSpace=wrap;html=1;strokeWidth=2;rotation=0;" parent="1" vertex="1">
                    <mxGeometry x="901.7" y="334" width="20" height="12" as="geometry"/>
                </mxCell>
                <mxCell id="fNMqg_ss_aidQW02KWIx-21" value="9" style="rounded=0;whiteSpace=wrap;html=1;strokeWidth=2;rotation=0;" parent="1" vertex="1">
                    <mxGeometry x="901.7" y="346" width="20" height="12" as="geometry"/>
                </mxCell>
                <mxCell id="fNMqg_ss_aidQW02KWIx-38" style="edgeStyle=orthogonalEdgeStyle;rounded=0;orthogonalLoop=1;jettySize=auto;html=1;entryX=0;entryY=0.5;entryDx=0;entryDy=0;strokeWidth=2;endArrow=none;endFill=0;exitX=1;exitY=0.5;exitDx=0;exitDy=0;jumpStyle=arc;" parent="1" source="fNMqg_ss_aidQW02KWIx-22" target="fNMqg_ss_aidQW02KWIx-31" edge="1">
                    <mxGeometry relative="1" as="geometry">
                        <mxPoint x="1000.7" y="410" as="sourcePoint"/>
                        <Array as="points">
                            <mxPoint x="980.7" y="364"/>
                            <mxPoint x="980.7" y="329"/>
                        </Array>
                    </mxGeometry>
                </mxCell>
                <mxCell id="fNMqg_ss_aidQW02KWIx-22" value="10" style="rounded=0;whiteSpace=wrap;html=1;strokeWidth=2;rotation=0;" parent="1" vertex="1">
                    <mxGeometry x="901.7" y="358" width="20" height="12" as="geometry"/>
                </mxCell>
                <mxCell id="fNMqg_ss_aidQW02KWIx-23" value="11" style="rounded=0;whiteSpace=wrap;html=1;strokeWidth=2;rotation=0;" parent="1" vertex="1">
                    <mxGeometry x="901.7" y="370" width="20" height="12" as="geometry"/>
                </mxCell>
                <mxCell id="fNMqg_ss_aidQW02KWIx-24" value="12" style="rounded=0;whiteSpace=wrap;html=1;strokeWidth=2;rotation=0;" parent="1" vertex="1">
                    <mxGeometry x="901.7" y="382" width="20" height="12" as="geometry"/>
                </mxCell>
                <mxCell id="fNMqg_ss_aidQW02KWIx-25" value="13" style="rounded=0;whiteSpace=wrap;html=1;strokeWidth=2;rotation=0;" parent="1" vertex="1">
                    <mxGeometry x="901.7" y="394" width="20" height="12" as="geometry"/>
                </mxCell>
                <mxCell id="fNMqg_ss_aidQW02KWIx-26" value="14" style="rounded=0;whiteSpace=wrap;html=1;strokeWidth=2;rotation=0;" parent="1" vertex="1">
                    <mxGeometry x="901.7" y="406" width="20" height="12" as="geometry"/>
                </mxCell>
                <mxCell id="fNMqg_ss_aidQW02KWIx-27" value="15" style="rounded=0;whiteSpace=wrap;html=1;strokeWidth=2;rotation=0;" parent="1" vertex="1">
                    <mxGeometry x="901.7" y="418" width="20" height="12" as="geometry"/>
                </mxCell>
                <mxCell id="fNMqg_ss_aidQW02KWIx-28" value="GND" style="rounded=0;whiteSpace=wrap;html=1;strokeWidth=2;rotation=0;" parent="1" vertex="1">
                    <mxGeometry x="1020.7" y="262" width="40" height="12" as="geometry"/>
                </mxCell>
                <mxCell id="fNMqg_ss_aidQW02KWIx-29" value="5V" style="rounded=0;whiteSpace=wrap;html=1;strokeWidth=2;rotation=0;" parent="1" vertex="1">
                    <mxGeometry x="1020.7" y="274" width="40" height="12" as="geometry"/>
                </mxCell>
                <mxCell id="fNMqg_ss_aidQW02KWIx-30" value="RXD" style="rounded=0;whiteSpace=wrap;html=1;strokeWidth=2;rotation=0;" parent="1" vertex="1">
                    <mxGeometry x="1020.7" y="310.61" width="40" height="12" as="geometry"/>
                </mxCell>
                <mxCell id="fNMqg_ss_aidQW02KWIx-31" value="TXD" style="rounded=0;whiteSpace=wrap;html=1;strokeWidth=2;rotation=0;" parent="1" vertex="1">
                    <mxGeometry x="1020.7" y="322.92" width="40" height="12" as="geometry"/>
                </mxCell>
                <mxCell id="fNMqg_ss_aidQW02KWIx-32" value="" style="endArrow=none;html=1;rounded=0;labelBackgroundColor=default;strokeColor=default;strokeWidth=2;fontFamily=Helvetica;fontSize=11;fontColor=default;shape=connector;jumpStyle=arc;edgeStyle=orthogonalEdgeStyle;entryX=0;entryY=0.25;entryDx=0;entryDy=0;exitX=1;exitY=0.5;exitDx=0;exitDy=0;" parent="1" source="fNMqg_ss_aidQW02KWIx-13" target="fNMqg_ss_aidQW02KWIx-28" edge="1">
                    <mxGeometry width="50" height="50" relative="1" as="geometry">
                        <mxPoint x="320.7" y="278" as="sourcePoint"/>
                        <mxPoint x="399.7" y="277" as="targetPoint"/>
                        <Array as="points">
                            <mxPoint x="1000.7" y="256"/>
                            <mxPoint x="1000.7" y="265"/>
                        </Array>
                    </mxGeometry>
                </mxCell>
                <mxCell id="fNMqg_ss_aidQW02KWIx-34" value="" style="endArrow=none;html=1;rounded=0;strokeWidth=2;edgeStyle=orthogonalEdgeStyle;exitX=1;exitY=0.5;exitDx=0;exitDy=0;entryX=0.75;entryY=0;entryDx=0;entryDy=0;" parent="1" source="DmmtlnbeRdiQzRtUIVF0-29" target="fNMqg_ss_aidQW02KWIx-8" edge="1">
                    <mxGeometry width="50" height="50" relative="1" as="geometry">
                        <mxPoint x="400" y="360" as="sourcePoint"/>
                        <mxPoint x="450" y="310" as="targetPoint"/>
                    </mxGeometry>
                </mxCell>
                <mxCell id="fNMqg_ss_aidQW02KWIx-35" value="" style="endArrow=none;html=1;rounded=0;labelBackgroundColor=default;strokeColor=default;strokeWidth=2;fontFamily=Helvetica;fontSize=11;fontColor=default;shape=connector;jumpStyle=arc;edgeStyle=orthogonalEdgeStyle;entryX=0;entryY=0.5;entryDx=0;entryDy=0;exitX=1;exitY=0.5;exitDx=0;exitDy=0;" parent="1" source="fNMqg_ss_aidQW02KWIx-14" target="fNMqg_ss_aidQW02KWIx-29" edge="1">
                    <mxGeometry width="50" height="50" relative="1" as="geometry">
                        <mxPoint x="931.7" y="266" as="sourcePoint"/>
                        <mxPoint x="1030.7" y="275" as="targetPoint"/>
                        <Array as="points">
                            <mxPoint x="990.7" y="268"/>
                            <mxPoint x="990.7" y="280"/>
                        </Array>
                    </mxGeometry>
                </mxCell>
                <mxCell id="fNMqg_ss_aidQW02KWIx-36" value="" style="endArrow=none;html=1;rounded=0;labelBackgroundColor=default;strokeColor=default;strokeWidth=2;fontFamily=Helvetica;fontSize=11;fontColor=default;shape=connector;jumpStyle=arc;edgeStyle=orthogonalEdgeStyle;entryX=0;entryY=0.5;entryDx=0;entryDy=0;exitX=1;exitY=0.5;exitDx=0;exitDy=0;" parent="1" source="fNMqg_ss_aidQW02KWIx-21" target="fNMqg_ss_aidQW02KWIx-30" edge="1">
                    <mxGeometry width="50" height="50" relative="1" as="geometry">
                        <mxPoint x="960.7" y="370" as="sourcePoint"/>
                        <mxPoint x="1030.7" y="290" as="targetPoint"/>
                        <Array as="points">
                            <mxPoint x="970.7" y="352"/>
                            <mxPoint x="970.7" y="317"/>
                        </Array>
                    </mxGeometry>
                </mxCell>
                <mxCell id="fNMqg_ss_aidQW02KWIx-44" style="edgeStyle=orthogonalEdgeStyle;rounded=0;orthogonalLoop=1;jettySize=auto;html=1;exitX=0;exitY=0.5;exitDx=0;exitDy=0;entryX=1;entryY=0.5;entryDx=0;entryDy=0;strokeWidth=2;endArrow=none;endFill=0;jumpStyle=arc;" parent="1" source="fNMqg_ss_aidQW02KWIx-39" target="fNMqg_ss_aidQW02KWIx-20" edge="1">
                    <mxGeometry relative="1" as="geometry">
                        <Array as="points">
                            <mxPoint x="960.7" y="305"/>
                            <mxPoint x="960.7" y="340"/>
                        </Array>
                    </mxGeometry>
                </mxCell>
                <mxCell id="fNMqg_ss_aidQW02KWIx-39" value="FIX" style="rounded=0;whiteSpace=wrap;html=1;strokeWidth=2;rotation=0;" parent="1" vertex="1">
                    <mxGeometry x="1020.7" y="298.61" width="40" height="12" as="geometry"/>
                </mxCell>
                <mxCell id="fNMqg_ss_aidQW02KWIx-40" value="ENA" style="rounded=0;whiteSpace=wrap;html=1;strokeWidth=2;rotation=0;" parent="1" vertex="1">
                    <mxGeometry x="1020.7" y="286.61" width="40" height="12" as="geometry"/>
                </mxCell>
                <mxCell id="fNMqg_ss_aidQW02KWIx-41" value="PPS" style="rounded=0;whiteSpace=wrap;html=1;strokeWidth=2;rotation=0;" parent="1" vertex="1">
                    <mxGeometry x="1020.7" y="334.92" width="40" height="12" as="geometry"/>
                </mxCell>
                <mxCell id="fNMqg_ss_aidQW02KWIx-51" style="edgeStyle=orthogonalEdgeStyle;rounded=0;jumpStyle=arc;orthogonalLoop=1;jettySize=auto;html=1;exitX=0.5;exitY=1;exitDx=0;exitDy=0;entryX=0.5;entryY=0;entryDx=0;entryDy=0;strokeWidth=2;endArrow=none;endFill=0;" parent="1" source="fNMqg_ss_aidQW02KWIx-49" target="fNMqg_ss_aidQW02KWIx-10" edge="1">
                    <mxGeometry relative="1" as="geometry"/>
                </mxCell>
                <mxCell id="fNMqg_ss_aidQW02KWIx-49" value="GPS External Ant.&lt;br&gt;30dBi active 13x13mm&lt;br&gt;u.FL connector&lt;br&gt;VHB tape to panel top&lt;br&gt;Pulse&amp;nbsp;GPSGB1330" style="rounded=0;whiteSpace=wrap;html=1;strokeWidth=2;rotation=0;" parent="1" vertex="1">
                    <mxGeometry x="1060.7" y="140" width="130" height="81" as="geometry"/>
                </mxCell>
                <mxCell id="fNMqg_ss_aidQW02KWIx-116" style="edgeStyle=orthogonalEdgeStyle;rounded=0;jumpStyle=arc;orthogonalLoop=1;jettySize=auto;html=1;exitX=0.75;exitY=0;exitDx=0;exitDy=0;entryX=0.5;entryY=1;entryDx=0;entryDy=0;strokeWidth=2;endArrow=none;endFill=0;" parent="1" source="fNMqg_ss_aidQW02KWIx-52" target="fNMqg_ss_aidQW02KWIx-115" edge="1">
                    <mxGeometry relative="1" as="geometry">
                        <Array as="points">
                            <mxPoint x="470" y="210"/>
                            <mxPoint x="555" y="210"/>
                        </Array>
                    </mxGeometry>
                </mxCell>
                <mxCell id="6" style="edgeStyle=orthogonalEdgeStyle;html=1;entryX=0.877;entryY=-0.086;entryDx=0;entryDy=0;entryPerimeter=0;endArrow=none;endFill=0;strokeWidth=2;" edge="1" parent="1" target="4">
                    <mxGeometry relative="1" as="geometry">
                        <mxPoint x="351" y="330" as="sourcePoint"/>
                    </mxGeometry>
                </mxCell>
                <mxCell id="7" value="A8" style="edgeLabel;html=1;align=center;verticalAlign=middle;resizable=0;points=[];" vertex="1" connectable="0" parent="6">
                    <mxGeometry x="0.1368" relative="1" as="geometry">
                        <mxPoint x="-1" y="-127" as="offset"/>
                    </mxGeometry>
                </mxCell>
                <mxCell id="fNMqg_ss_aidQW02KWIx-52" value="Teensy 4.1 SoC&lt;br&gt;600MHz&lt;br&gt;with emulated EEPROM and onboard RTC" style="rounded=0;whiteSpace=wrap;html=1;strokeWidth=2;rotation=0;" parent="1" vertex="1">
                    <mxGeometry x="260" y="273.53000000000003" width="280" height="58.39" as="geometry"/>
                </mxCell>
                <mxCell id="fNMqg_ss_aidQW02KWIx-77" style="edgeStyle=orthogonalEdgeStyle;rounded=0;jumpStyle=arc;orthogonalLoop=1;jettySize=auto;html=1;exitX=1;exitY=0.5;exitDx=0;exitDy=0;entryX=0;entryY=0.5;entryDx=0;entryDy=0;strokeWidth=2;endArrow=none;endFill=0;" parent="1" source="fNMqg_ss_aidQW02KWIx-55" target="fNMqg_ss_aidQW02KWIx-65" edge="1">
                    <mxGeometry relative="1" as="geometry">
                        <mxPoint x="839" y="575" as="sourcePoint"/>
                    </mxGeometry>
                </mxCell>
                <mxCell id="fNMqg_ss_aidQW02KWIx-55" value="RA Servo Driver&lt;br&gt;LevelStick" style="rounded=0;whiteSpace=wrap;html=1;strokeWidth=2;rotation=0;fillColor=#b0e3e6;strokeColor=#0e8088;" parent="1" vertex="1">
                    <mxGeometry x="727" y="554" width="100" height="42" as="geometry"/>
                </mxCell>
                <mxCell id="fNMqg_ss_aidQW02KWIx-78" style="edgeStyle=orthogonalEdgeStyle;rounded=0;jumpStyle=arc;orthogonalLoop=1;jettySize=auto;html=1;exitX=1;exitY=0.5;exitDx=0;exitDy=0;entryX=0;entryY=0.5;entryDx=0;entryDy=0;strokeWidth=2;endArrow=none;endFill=0;" parent="1" target="fNMqg_ss_aidQW02KWIx-66" edge="1">
                    <mxGeometry relative="1" as="geometry">
                        <mxPoint x="839" y="625" as="sourcePoint"/>
                    </mxGeometry>
                </mxCell>
                <mxCell id="fNMqg_ss_aidQW02KWIx-133" value="" style="edgeStyle=orthogonalEdgeStyle;rounded=0;jumpStyle=arc;orthogonalLoop=1;jettySize=auto;html=1;labelBackgroundColor=#99CCFF;strokeWidth=2;endArrow=none;endFill=0;" parent="1" source="fNMqg_ss_aidQW02KWIx-56" target="fNMqg_ss_aidQW02KWIx-66" edge="1">
                    <mxGeometry relative="1" as="geometry"/>
                </mxCell>
                <mxCell id="fNMqg_ss_aidQW02KWIx-56" value="Dec Servo Driver&lt;br&gt;LevelStick" style="rounded=0;whiteSpace=wrap;html=1;strokeWidth=2;rotation=0;fillColor=#b0e3e6;strokeColor=#0e8088;" parent="1" vertex="1">
                    <mxGeometry x="727" y="606" width="100" height="38" as="geometry"/>
                </mxCell>
                <mxCell id="fNMqg_ss_aidQW02KWIx-83" style="edgeStyle=orthogonalEdgeStyle;rounded=0;jumpStyle=arc;orthogonalLoop=1;jettySize=auto;html=1;exitX=1;exitY=0.5;exitDx=0;exitDy=0;entryX=0;entryY=0.5;entryDx=0;entryDy=0;strokeWidth=2;endArrow=none;endFill=0;" parent="1" source="fNMqg_ss_aidQW02KWIx-57" target="fNMqg_ss_aidQW02KWIx-59" edge="1">
                    <mxGeometry relative="1" as="geometry">
                        <mxPoint x="839" y="475" as="sourcePoint"/>
                    </mxGeometry>
                </mxCell>
                <mxCell id="fNMqg_ss_aidQW02KWIx-57" value="Focuser 1&lt;br&gt;Stepper Driver" style="rounded=0;whiteSpace=wrap;html=1;strokeWidth=2;rotation=0;" parent="1" vertex="1">
                    <mxGeometry x="727" y="454" width="100" height="42" as="geometry"/>
                </mxCell>
                <mxCell id="fNMqg_ss_aidQW02KWIx-59" value="6-pin circ. Fem conn&lt;br&gt;panel rear mount&lt;br&gt;Amphenol" style="rounded=0;whiteSpace=wrap;html=1;strokeWidth=2;rotation=0;" parent="1" vertex="1">
                    <mxGeometry x="913" y="450" width="130" height="50" as="geometry"/>
                </mxCell>
                <mxCell id="fNMqg_ss_aidQW02KWIx-64" value="6-pin circ. Fem conn&lt;br&gt;panel rear mount&lt;br&gt;Amphenol" style="rounded=0;whiteSpace=wrap;html=1;strokeWidth=2;rotation=0;" parent="1" vertex="1">
                    <mxGeometry x="913" y="500" width="130" height="50" as="geometry"/>
                </mxCell>
                <mxCell id="fNMqg_ss_aidQW02KWIx-65" value="8-pin circ. Fem conn&lt;br&gt;panel rear mount&lt;br&gt;Amphenol" style="rounded=0;whiteSpace=wrap;html=1;strokeWidth=2;rotation=0;" parent="1" vertex="1">
                    <mxGeometry x="913" y="550" width="130" height="50" as="geometry"/>
                </mxCell>
                <mxCell id="fNMqg_ss_aidQW02KWIx-66" value="8-pin circ. Fem conn&lt;br&gt;panel rear mount&lt;br&gt;Amphenol" style="rounded=0;whiteSpace=wrap;html=1;strokeWidth=2;rotation=0;" parent="1" vertex="1">
                    <mxGeometry x="913" y="600" width="130" height="50" as="geometry"/>
                </mxCell>
                <mxCell id="fNMqg_ss_aidQW02KWIx-67" value="8-pin circ. fem conn&lt;br&gt;panel rear mount&lt;br&gt;Amphenol" style="rounded=0;whiteSpace=wrap;html=1;strokeWidth=2;rotation=0;" parent="1" vertex="1">
                    <mxGeometry x="222" y="1123" width="140" height="50" as="geometry"/>
                </mxCell>
                <mxCell id="fNMqg_ss_aidQW02KWIx-68" value="8-pin circ. male conn&lt;br&gt;cable mount&lt;br&gt;Amphenol" style="rounded=0;whiteSpace=wrap;html=1;strokeWidth=2;rotation=0;fillColor=#b0e3e6;strokeColor=#0e8088;" parent="1" vertex="1">
                    <mxGeometry x="222" y="1038" width="140" height="50" as="geometry"/>
                </mxCell>
                <mxCell id="fNMqg_ss_aidQW02KWIx-122" style="edgeStyle=orthogonalEdgeStyle;rounded=0;jumpStyle=arc;orthogonalLoop=1;jettySize=auto;html=1;exitX=1;exitY=0.5;exitDx=0;exitDy=0;entryX=0;entryY=0.5;entryDx=0;entryDy=0;strokeWidth=2;endArrow=none;endFill=0;" parent="1" source="fNMqg_ss_aidQW02KWIx-69" target="fNMqg_ss_aidQW02KWIx-119" edge="1">
                    <mxGeometry relative="1" as="geometry"/>
                </mxCell>
                <mxCell id="fNMqg_ss_aidQW02KWIx-69" value="8-pin circ. male conn&lt;br&gt;cable mount&lt;br&gt;Amphenol" style="rounded=0;whiteSpace=wrap;html=1;strokeWidth=2;rotation=0;fillColor=#b0e3e6;strokeColor=#0e8088;" parent="1" vertex="1">
                    <mxGeometry x="1053.7" y="550" width="130" height="50" as="geometry"/>
                </mxCell>
                <mxCell id="fNMqg_ss_aidQW02KWIx-125" style="edgeStyle=orthogonalEdgeStyle;rounded=0;jumpStyle=arc;orthogonalLoop=1;jettySize=auto;html=1;exitX=1;exitY=0.5;exitDx=0;exitDy=0;entryX=0;entryY=0.5;entryDx=0;entryDy=0;strokeWidth=2;endArrow=none;endFill=0;" parent="1" source="fNMqg_ss_aidQW02KWIx-70" target="fNMqg_ss_aidQW02KWIx-120" edge="1">
                    <mxGeometry relative="1" as="geometry"/>
                </mxCell>
                <mxCell id="fNMqg_ss_aidQW02KWIx-70" value="8-pin circ. male conn&lt;br&gt;cable mount&lt;br&gt;Amphenol" style="rounded=0;whiteSpace=wrap;html=1;strokeWidth=2;rotation=0;fillColor=#b0e3e6;strokeColor=#0e8088;" parent="1" vertex="1">
                    <mxGeometry x="1053.7" y="600" width="130" height="50" as="geometry"/>
                </mxCell>
                <mxCell id="fNMqg_ss_aidQW02KWIx-71" value="Servo&lt;br&gt;StepperOnline" style="rounded=0;whiteSpace=wrap;html=1;strokeWidth=2;rotation=0;" parent="1" vertex="1">
                    <mxGeometry x="1383" y="550" width="130" height="50" as="geometry"/>
                </mxCell>
                <mxCell id="fNMqg_ss_aidQW02KWIx-72" value="Servo&lt;br&gt;StepperOnline" style="rounded=0;whiteSpace=wrap;html=1;strokeWidth=2;rotation=0;" parent="1" vertex="1">
                    <mxGeometry x="1383" y="600" width="130" height="50" as="geometry"/>
                </mxCell>
                <mxCell id="fNMqg_ss_aidQW02KWIx-80" style="edgeStyle=orthogonalEdgeStyle;rounded=0;jumpStyle=arc;orthogonalLoop=1;jettySize=auto;html=1;exitX=1;exitY=0.5;exitDx=0;exitDy=0;entryX=0;entryY=0.5;entryDx=0;entryDy=0;strokeWidth=2;endArrow=none;endFill=0;" parent="1" source="fNMqg_ss_aidQW02KWIx-79" target="fNMqg_ss_aidQW02KWIx-64" edge="1">
                    <mxGeometry relative="1" as="geometry">
                        <mxPoint x="839" y="525" as="sourcePoint"/>
                    </mxGeometry>
                </mxCell>
                <mxCell id="fNMqg_ss_aidQW02KWIx-79" value="Focuser 2&lt;br&gt;Stepper Driver" style="rounded=0;whiteSpace=wrap;html=1;strokeWidth=2;rotation=0;" parent="1" vertex="1">
                    <mxGeometry x="727" y="504" width="100" height="42" as="geometry"/>
                </mxCell>
                <mxCell id="fNMqg_ss_aidQW02KWIx-86" style="edgeStyle=orthogonalEdgeStyle;rounded=0;jumpStyle=arc;orthogonalLoop=1;jettySize=auto;html=1;exitX=0.5;exitY=1;exitDx=0;exitDy=0;entryX=0.5;entryY=0;entryDx=0;entryDy=0;strokeWidth=2;endArrow=blockThin;endFill=1;" parent="1" source="fNMqg_ss_aidQW02KWIx-84" target="fNMqg_ss_aidQW02KWIx-85" edge="1">
                    <mxGeometry relative="1" as="geometry"/>
                </mxCell>
                <mxCell id="fNMqg_ss_aidQW02KWIx-84" value="Onboard 5V&lt;br&gt;Regulator" style="rounded=0;whiteSpace=wrap;html=1;strokeWidth=2;rotation=0;" parent="1" vertex="1">
                    <mxGeometry x="600" y="278.91999999999996" width="101.24" height="40" as="geometry"/>
                </mxCell>
                <mxCell id="2" style="edgeStyle=orthogonalEdgeStyle;html=1;exitX=0;exitY=0.5;exitDx=0;exitDy=0;entryX=1;entryY=0.5;entryDx=0;entryDy=0;" edge="1" parent="1" source="fNMqg_ss_aidQW02KWIx-85" target="fNMqg_ss_aidQW02KWIx-52">
                    <mxGeometry relative="1" as="geometry"/>
                </mxCell>
                <mxCell id="3" style="edgeStyle=orthogonalEdgeStyle;html=1;exitX=0.5;exitY=1;exitDx=0;exitDy=0;entryX=0.5;entryY=0;entryDx=0;entryDy=0;" edge="1" parent="1" source="fNMqg_ss_aidQW02KWIx-85" target="fNMqg_ss_aidQW02KWIx-9">
                    <mxGeometry relative="1" as="geometry"/>
                </mxCell>
                <mxCell id="fNMqg_ss_aidQW02KWIx-85" value="&lt;font style=&quot;font-size: 11px;&quot;&gt;5VDC&lt;/font&gt;" style="ellipse;whiteSpace=wrap;html=1;aspect=fixed;fontFamily=Helvetica;fontSize=18;fontColor=default;" parent="1" vertex="1">
                    <mxGeometry x="627.62" y="338.91999999999996" width="40" height="40" as="geometry"/>
                </mxCell>
                <mxCell id="fNMqg_ss_aidQW02KWIx-88" style="edgeStyle=orthogonalEdgeStyle;rounded=0;jumpStyle=arc;orthogonalLoop=1;jettySize=auto;html=1;exitX=1;exitY=0.5;exitDx=0;exitDy=0;entryX=0.092;entryY=-0.13;entryDx=0;entryDy=0;entryPerimeter=0;strokeWidth=2;endArrow=blockThin;endFill=1;" parent="1" source="fNMqg_ss_aidQW02KWIx-87" target="DmmtlnbeRdiQzRtUIVF0-5" edge="1">
                    <mxGeometry relative="1" as="geometry"/>
                </mxCell>
                <mxCell id="fNMqg_ss_aidQW02KWIx-87" value="&lt;font style=&quot;font-size: 11px;&quot;&gt;5VDC&lt;/font&gt;" style="ellipse;whiteSpace=wrap;html=1;aspect=fixed;fontFamily=Helvetica;fontSize=18;fontColor=default;" parent="1" vertex="1">
                    <mxGeometry x="813.61" y="247.22000000000003" width="41.39" height="41.39" as="geometry"/>
                </mxCell>
                <mxCell id="fNMqg_ss_aidQW02KWIx-89" value="VBAT" style="rounded=0;whiteSpace=wrap;html=1;strokeWidth=2;rotation=0;" parent="1" vertex="1">
                    <mxGeometry x="1020.7" y="346.92" width="40" height="12" as="geometry"/>
                </mxCell>
                <mxCell id="fNMqg_ss_aidQW02KWIx-93" style="edgeStyle=orthogonalEdgeStyle;rounded=0;jumpStyle=arc;orthogonalLoop=1;jettySize=auto;html=1;exitX=0.5;exitY=1;exitDx=0;exitDy=0;strokeWidth=2;endArrow=none;endFill=0;entryX=0.2;entryY=0.029;entryDx=0;entryDy=0;entryPerimeter=0;" parent="1" source="fNMqg_ss_aidQW02KWIx-90" target="4" edge="1">
                    <mxGeometry relative="1" as="geometry">
                        <mxPoint x="245" y="660" as="targetPoint"/>
                    </mxGeometry>
                </mxCell>
                <mxCell id="fNMqg_ss_aidQW02KWIx-90" value="&lt;font style=&quot;font-size: 11px;&quot;&gt;5VDC&lt;/font&gt;" style="ellipse;whiteSpace=wrap;html=1;aspect=fixed;fontFamily=Helvetica;fontSize=18;fontColor=default;" parent="1" vertex="1">
                    <mxGeometry x="225" y="550" width="40" height="40" as="geometry"/>
                </mxCell>
                <mxCell id="fNMqg_ss_aidQW02KWIx-95" value="" style="endArrow=none;html=1;rounded=0;strokeWidth=2;jumpStyle=arc;edgeStyle=orthogonalEdgeStyle;entryX=0.171;entryY=1;entryDx=0;entryDy=0;entryPerimeter=0;exitX=0.594;exitY=-0.057;exitDx=0;exitDy=0;exitPerimeter=0;" parent="1" source="4" target="fNMqg_ss_aidQW02KWIx-52" edge="1">
                    <mxGeometry width="50" height="50" relative="1" as="geometry">
                        <mxPoint x="310" y="660" as="sourcePoint"/>
                        <mxPoint x="750" y="460" as="targetPoint"/>
                    </mxGeometry>
                </mxCell>
                <mxCell id="fNMqg_ss_aidQW02KWIx-97" value="Analog rate input&lt;br&gt;A8" style="text;html=1;strokeColor=none;fillColor=none;align=center;verticalAlign=middle;whiteSpace=wrap;rounded=0;" parent="1" vertex="1">
                    <mxGeometry x="250" y="335.92" width="60" height="43" as="geometry"/>
                </mxCell>
                <mxCell id="fNMqg_ss_aidQW02KWIx-98" value="" style="endArrow=none;html=1;rounded=0;strokeWidth=2;jumpStyle=arc;edgeStyle=orthogonalEdgeStyle;entryX=0.286;entryY=0.994;entryDx=0;entryDy=0;entryPerimeter=0;exitX=0.75;exitY=0;exitDx=0;exitDy=0;" parent="1" target="fNMqg_ss_aidQW02KWIx-52" edge="1" source="4">
                    <mxGeometry width="50" height="50" relative="1" as="geometry">
                        <mxPoint x="340" y="660" as="sourcePoint"/>
                        <mxPoint x="318" y="342" as="targetPoint"/>
                        <Array as="points">
                            <mxPoint x="331" y="669"/>
                            <mxPoint x="330" y="669"/>
                            <mxPoint x="330" y="332"/>
                        </Array>
                    </mxGeometry>
                </mxCell>
                <mxCell id="fNMqg_ss_aidQW02KWIx-99" value="/5/&lt;br&gt;ST4" style="edgeLabel;html=1;align=center;verticalAlign=middle;resizable=0;points=[];" parent="fNMqg_ss_aidQW02KWIx-98" vertex="1" connectable="0">
                    <mxGeometry x="0.1118" relative="1" as="geometry">
                        <mxPoint as="offset"/>
                    </mxGeometry>
                </mxCell>
                <mxCell id="fNMqg_ss_aidQW02KWIx-112" style="edgeStyle=orthogonalEdgeStyle;rounded=0;jumpStyle=arc;orthogonalLoop=1;jettySize=auto;html=1;exitX=1;exitY=0.5;exitDx=0;exitDy=0;entryX=0;entryY=0.5;entryDx=0;entryDy=0;strokeWidth=2;endArrow=none;endFill=0;" parent="1" source="fNMqg_ss_aidQW02KWIx-100" target="fNMqg_ss_aidQW02KWIx-111" edge="1">
                    <mxGeometry relative="1" as="geometry"/>
                </mxCell>
                <mxCell id="fNMqg_ss_aidQW02KWIx-100" value="&lt;font style=&quot;font-size: 11px;&quot;&gt;48VDC&lt;/font&gt;" style="ellipse;whiteSpace=wrap;html=1;aspect=fixed;fontFamily=Helvetica;fontSize=18;fontColor=default;" parent="1" vertex="1">
                    <mxGeometry x="863" y="850" width="60" height="60" as="geometry"/>
                </mxCell>
                <mxCell id="fNMqg_ss_aidQW02KWIx-101" value="" style="endArrow=none;html=1;rounded=0;strokeWidth=2;jumpStyle=arc;exitX=0.5;exitY=0;exitDx=0;exitDy=0;entryX=0;entryY=0.75;entryDx=0;entryDy=0;edgeStyle=orthogonalEdgeStyle;" parent="1" source="fNMqg_ss_aidQW02KWIx-100" target="fNMqg_ss_aidQW02KWIx-66" edge="1">
                    <mxGeometry width="50" height="50" relative="1" as="geometry">
                        <mxPoint x="763" y="450" as="sourcePoint"/>
                        <mxPoint x="813" y="400" as="targetPoint"/>
                    </mxGeometry>
                </mxCell>
                <mxCell id="fNMqg_ss_aidQW02KWIx-102" value="&lt;font style=&quot;font-size: 11px;&quot;&gt;DCGND&lt;/font&gt;" style="ellipse;whiteSpace=wrap;html=1;aspect=fixed;fontFamily=Helvetica;fontSize=18;fontColor=default;" parent="1" vertex="1">
                    <mxGeometry x="949" y="730" width="60" height="60" as="geometry"/>
                </mxCell>
                <mxCell id="fNMqg_ss_aidQW02KWIx-103" value="" style="endArrow=none;html=1;rounded=0;strokeWidth=2;jumpStyle=arc;exitX=0.5;exitY=0;exitDx=0;exitDy=0;entryX=0.5;entryY=1;entryDx=0;entryDy=0;edgeStyle=orthogonalEdgeStyle;" parent="1" source="fNMqg_ss_aidQW02KWIx-102" target="fNMqg_ss_aidQW02KWIx-66" edge="1">
                    <mxGeometry width="50" height="50" relative="1" as="geometry">
                        <mxPoint x="988" y="700" as="sourcePoint"/>
                        <mxPoint x="988" y="660" as="targetPoint"/>
                        <Array as="points">
                            <mxPoint x="978" y="670"/>
                        </Array>
                    </mxGeometry>
                </mxCell>
                <mxCell id="fNMqg_ss_aidQW02KWIx-114" style="edgeStyle=orthogonalEdgeStyle;rounded=0;jumpStyle=arc;orthogonalLoop=1;jettySize=auto;html=1;exitX=0;exitY=0.25;exitDx=0;exitDy=0;entryX=1;entryY=0.5;entryDx=0;entryDy=0;strokeWidth=2;endArrow=none;endFill=0;" parent="1" source="fNMqg_ss_aidQW02KWIx-109" target="fNMqg_ss_aidQW02KWIx-102" edge="1">
                    <mxGeometry relative="1" as="geometry"/>
                </mxCell>
                <mxCell id="fNMqg_ss_aidQW02KWIx-109" value="Servo Volt/Ammeter&lt;br&gt;DC 5-100V 100A&lt;br&gt;Bayite&lt;br&gt;10 wraps on sense loop" style="rounded=0;whiteSpace=wrap;html=1;strokeWidth=2;rotation=0;" parent="1" vertex="1">
                    <mxGeometry x="1043" y="745" width="130" height="63" as="geometry"/>
                </mxCell>
                <mxCell id="fNMqg_ss_aidQW02KWIx-113" style="edgeStyle=orthogonalEdgeStyle;rounded=0;jumpStyle=arc;orthogonalLoop=1;jettySize=auto;html=1;exitX=0.5;exitY=0;exitDx=0;exitDy=0;strokeWidth=2;endArrow=none;endFill=0;" parent="1" source="fNMqg_ss_aidQW02KWIx-111" target="fNMqg_ss_aidQW02KWIx-109" edge="1">
                    <mxGeometry relative="1" as="geometry"/>
                </mxCell>
                <mxCell id="fNMqg_ss_aidQW02KWIx-111" value="Mini SPST&lt;br&gt;Toggle Switch&lt;br&gt;NKK M2011S2A1W01&lt;br&gt;De-powers meter&lt;br&gt;for dark operation" style="rounded=0;whiteSpace=wrap;html=1;strokeWidth=2;rotation=0;" parent="1" vertex="1">
                    <mxGeometry x="1043" y="840" width="130" height="80" as="geometry"/>
                </mxCell>
                <mxCell id="fNMqg_ss_aidQW02KWIx-115" value="MicroUSB&lt;br&gt;panel mount&lt;br&gt;extension cable&lt;br&gt;Adafruit 4217" style="rounded=0;whiteSpace=wrap;html=1;strokeWidth=2;rotation=0;" parent="1" vertex="1">
                    <mxGeometry x="490" y="130" width="130" height="60" as="geometry"/>
                </mxCell>
                <mxCell id="fNMqg_ss_aidQW02KWIx-117" value="MicroUSB&lt;br&gt;panel mount&lt;br&gt;extension cable&lt;br&gt;Adafruit 4217" style="rounded=0;whiteSpace=wrap;html=1;strokeWidth=2;rotation=0;" parent="1" vertex="1">
                    <mxGeometry x="450" y="670" width="130" height="60" as="geometry"/>
                </mxCell>
                <mxCell id="fNMqg_ss_aidQW02KWIx-123" style="edgeStyle=orthogonalEdgeStyle;rounded=0;jumpStyle=arc;orthogonalLoop=1;jettySize=auto;html=1;exitX=1;exitY=0.5;exitDx=0;exitDy=0;entryX=0;entryY=0.5;entryDx=0;entryDy=0;strokeWidth=2;endArrow=none;endFill=0;" parent="1" source="fNMqg_ss_aidQW02KWIx-119" target="fNMqg_ss_aidQW02KWIx-71" edge="1">
                    <mxGeometry relative="1" as="geometry"/>
                </mxCell>
                <mxCell id="fNMqg_ss_aidQW02KWIx-119" value="Servo Cable&lt;br&gt;Hybrid 18-2 + 22-6&lt;br&gt;FABRICATE" style="rounded=0;whiteSpace=wrap;html=1;strokeWidth=2;rotation=0;fillColor=#b0e3e6;strokeColor=#0e8088;" parent="1" vertex="1">
                    <mxGeometry x="1213" y="550" width="130" height="50" as="geometry"/>
                </mxCell>
                <mxCell id="fNMqg_ss_aidQW02KWIx-126" style="edgeStyle=orthogonalEdgeStyle;rounded=0;jumpStyle=arc;orthogonalLoop=1;jettySize=auto;html=1;exitX=1;exitY=0.5;exitDx=0;exitDy=0;entryX=0;entryY=0.5;entryDx=0;entryDy=0;strokeWidth=2;endArrow=none;endFill=0;" parent="1" source="fNMqg_ss_aidQW02KWIx-120" target="fNMqg_ss_aidQW02KWIx-72" edge="1">
                    <mxGeometry relative="1" as="geometry"/>
                </mxCell>
                <mxCell id="fNMqg_ss_aidQW02KWIx-120" value="Servo Cable&lt;br&gt;Hybrid 18-2 + 22-6&lt;br&gt;FABRICATE" style="rounded=0;whiteSpace=wrap;html=1;strokeWidth=2;rotation=0;fillColor=#b0e3e6;strokeColor=#0e8088;" parent="1" vertex="1">
                    <mxGeometry x="1213" y="600" width="130" height="50" as="geometry"/>
                </mxCell>
                <mxCell id="fNMqg_ss_aidQW02KWIx-121" value="ST4 Cable&lt;br&gt;22-8 alarm wire&lt;br&gt;FABRICATE" style="rounded=0;whiteSpace=wrap;html=1;strokeWidth=2;rotation=0;fillColor=#b0e3e6;strokeColor=#0e8088;" parent="1" vertex="1">
                    <mxGeometry x="222" y="978" width="140" height="50" as="geometry"/>
                </mxCell>
                <mxCell id="fNMqg_ss_aidQW02KWIx-127" value="" style="strokeWidth=2;html=1;shape=mxgraph.flowchart.annotation_2;align=left;labelPosition=right;pointerEvents=1;" parent="1" vertex="1">
                    <mxGeometry x="162" y="923" width="50" height="160" as="geometry"/>
                </mxCell>
                <mxCell id="fNMqg_ss_aidQW02KWIx-128" value="" style="strokeWidth=2;html=1;shape=mxgraph.flowchart.annotation_2;align=left;labelPosition=right;pointerEvents=1;rotation=-90;" parent="1" vertex="1">
                    <mxGeometry x="1181.5" y="525.5" width="33" height="290" as="geometry"/>
                </mxCell>
                <mxCell id="fNMqg_ss_aidQW02KWIx-129" value="Servo Cable Assy" style="text;html=1;strokeColor=none;fillColor=none;align=center;verticalAlign=middle;whiteSpace=wrap;rounded=0;fontStyle=1" parent="1" vertex="1">
                    <mxGeometry x="1138" y="680" width="120" height="30" as="geometry"/>
                </mxCell>
                <mxCell id="fNMqg_ss_aidQW02KWIx-130" value="ST4 Cable Assy" style="text;html=1;strokeColor=none;fillColor=none;align=center;verticalAlign=middle;whiteSpace=wrap;rounded=0;fontStyle=1" parent="1" vertex="1">
                    <mxGeometry x="47" y="988" width="120" height="30" as="geometry"/>
                </mxCell>
                <mxCell id="fNMqg_ss_aidQW02KWIx-131" value="You need to build or modify these" style="rounded=0;whiteSpace=wrap;html=1;strokeWidth=2;rotation=0;fillColor=#b0e3e6;strokeColor=#0e8088;" parent="1" vertex="1">
                    <mxGeometry x="741.7" y="98" width="100" height="42" as="geometry"/>
                </mxCell>
                <mxCell id="fNMqg_ss_aidQW02KWIx-137" value="" style="endArrow=none;html=1;rounded=0;strokeWidth=2;jumpStyle=arc;exitX=0.5;exitY=0;exitDx=0;exitDy=0;entryX=0;entryY=0.75;entryDx=0;entryDy=0;edgeStyle=orthogonalEdgeStyle;" parent="1" source="fNMqg_ss_aidQW02KWIx-100" target="fNMqg_ss_aidQW02KWIx-65" edge="1">
                    <mxGeometry width="50" height="50" relative="1" as="geometry">
                        <mxPoint x="895" y="800" as="sourcePoint"/>
                        <mxPoint x="923" y="648" as="targetPoint"/>
                    </mxGeometry>
                </mxCell>
                <mxCell id="fNMqg_ss_aidQW02KWIx-138" value="J12 sends +5V to ST4" style="text;html=1;strokeColor=none;fillColor=none;align=center;verticalAlign=middle;whiteSpace=wrap;rounded=0;" parent="1" vertex="1">
                    <mxGeometry x="215" y="510" width="60" height="30" as="geometry"/>
                </mxCell>
                <mxCell id="fNMqg_ss_aidQW02KWIx-140" value="GPS&lt;br&gt;Backup&lt;br&gt;Battery CR1220" style="rounded=0;whiteSpace=wrap;html=1;strokeWidth=2;rotation=0;" parent="1" vertex="1">
                    <mxGeometry x="1190.7" y="330" width="69.3" height="71" as="geometry"/>
                </mxCell>
                <mxCell id="4" value="7-pin XH male conn&lt;br&gt;generic" style="rounded=0;whiteSpace=wrap;html=1;strokeWidth=2;rotation=0;" vertex="1" parent="1">
                    <mxGeometry x="215" y="670" width="155" height="35" as="geometry"/>
                </mxCell>
                <mxCell id="8" style="edgeStyle=orthogonalEdgeStyle;html=1;exitX=0.5;exitY=1;exitDx=0;exitDy=0;entryX=0.5;entryY=0;entryDx=0;entryDy=0;strokeWidth=4;endArrow=none;endFill=0;" edge="1" parent="1" source="5" target="fNMqg_ss_aidQW02KWIx-2">
                    <mxGeometry relative="1" as="geometry"/>
                </mxCell>
                <mxCell id="5" value="7-pin XH female conn&lt;br&gt;generic" style="rounded=0;whiteSpace=wrap;html=1;strokeWidth=2;rotation=0;" vertex="1" parent="1">
                    <mxGeometry x="215" y="710" width="155" height="35" as="geometry"/>
                </mxCell>
            </root>
        </mxGraphModel>
    </diagram>
</mxfile>